<?xml version="1.0" standalone="no"?>
<!DOCTYPE svg PUBLIC "-//W3C//DTD SVG 20010904//EN"
 "http://www.w3.org/TR/2001/REC-SVG-20010904/DTD/svg10.dtd">
<svg version="1.0" xmlns="http://www.w3.org/2000/svg"
 width="500.000000pt" height="500.000000pt" viewBox="0 0 500.000000 500.000000"
 preserveAspectRatio="xMidYMid meet">

<g transform="translate(0.000000,500.000000) scale(0.100000,-0.100000)"
fill="#000000" stroke="none">
<path d="M672 3708 c-9 -9 -12 -271 -12 -1120 0 -1085 0 -1108 19 -1118 13 -7
559 -10 1694 -10 1609 0 1675 1 1690 18 16 17 17 109 17 1118 0 842 -3 1103
-12 1112 -17 17 -3379 17 -3396 0z m1788 -698 c0 -28 -3 -30 -37 -30 -31 0
-40 -5 -50 -25 -6 -14 -7 -23 -3 -20 5 3 11 1 15 -5 3 -5 0 -10 -8 -10 -8 0
-26 -9 -40 -20 -14 -11 -29 -20 -34 -20 -4 0 0 7 10 14 16 12 -3 14 -140 13
l-158 -1 141 -5 c128 -5 141 -8 138 -24 -2 -16 6 -18 92 -16 52 1 94 3 94 4 0
1 -8 9 -17 16 -14 12 -16 12 -9 0 6 -9 5 -12 -3 -10 -7 3 -13 9 -13 14 0 6 -4
16 -10 23 -8 9 23 12 151 12 136 0 161 -2 161 -15 0 -8 -7 -15 -15 -15 -12 0
-15 -19 -15 -110 0 -91 3 -110 15 -110 8 0 15 -9 15 -20 0 -20 -7 -20 -364
-20 -368 0 -406 4 -363 35 14 10 17 31 17 119 0 64 -4 106 -10 106 -5 0 -10 7
-10 15 0 13 24 15 154 15 149 0 154 1 180 25 19 17 26 34 26 60 0 35 0 35 45
35 43 0 45 -1 45 -30z m-50 -75 c7 -8 9 -15 5 -15 -4 0 -2 -7 5 -15 7 -8 8
-15 2 -15 -5 0 -15 7 -22 15 -7 8 -9 15 -5 15 4 0 2 7 -5 15 -7 8 -8 15 -2 15
5 0 15 -7 22 -15z m-959 -475 c6 -33 16 -60 21 -60 5 0 6 -4 3 -10 -10 -17
-48 -12 -41 5 9 25 -4 45 -30 45 -20 0 -24 -5 -24 -30 0 -23 -4 -30 -20 -30
-20 0 -27 14 -11 24 4 3 11 27 15 54 7 58 11 62 47 62 26 0 29 -4 40 -60z
m157 38 c3 -14 -3 -16 -33 -11 l-36 6 3 -44 c3 -43 4 -44 36 -42 21 1 32 -3
29 -10 -5 -17 -65 -21 -83 -6 -18 14 -19 100 -2 117 19 19 82 11 86 -10z m158
-33 c6 -27 15 -58 19 -67 5 -14 2 -18 -14 -18 -17 0 -21 6 -21 30 0 25 -4 30
-24 30 -26 0 -39 -20 -30 -45 4 -11 0 -15 -16 -15 -14 0 -20 5 -17 13 2 7 10
39 17 70 11 57 12 58 43 55 29 -3 33 -7 43 -53z m163 41 c7 -8 11 -37 9 -68
l-3 -53 -50 -3 -50 -3 0 71 0 70 41 0 c24 0 47 -6 53 -14z m161 -8 c0 -13 -7
-15 -40 -11 -33 5 -40 3 -40 -11 0 -12 7 -16 22 -14 15 2 24 -3 26 -15 3 -14
-1 -18 -19 -15 -12 2 -24 -3 -27 -11 -4 -11 4 -13 37 -8 36 4 41 3 41 -14 0
-16 -8 -19 -52 -19 l-53 0 0 62 c0 35 3 65 7 68 3 3 27 5 52 5 36 0 46 -4 46
-17z m265 -48 c0 -56 -3 -70 -15 -70 -12 0 -15 14 -15 65 0 49 4 65 15 69 8 2
15 4 15 5 0 0 0 -30 0 -69z m140 50 c0 -11 -9 -14 -38 -12 l-38 4 3 -44 c3
-43 3 -43 41 -42 50 2 43 -20 -8 -24 -24 -2 -41 2 -46 10 -13 20 -11 102 3
116 18 18 83 11 83 -8z m259 -2 c17 -28 -4 -52 -49 -56 -35 -3 -37 -5 -31 -33
5 -25 3 -29 -17 -29 -21 0 -22 4 -22 70 l0 71 54 -3 c38 -2 57 -8 65 -20z
m302 -33 c6 -27 15 -58 19 -68 7 -16 4 -18 -16 -15 -20 2 -23 8 -21 31 3 26 1
28 -25 25 -24 -3 -28 -7 -26 -30 1 -22 -3 -28 -18 -28 -15 0 -19 5 -15 18 2 9
7 33 11 52 13 69 15 71 48 68 29 -3 33 -7 43 -53z m172 37 c2 -8 -13 -32 -34
-54 l-39 -40 38 6 c34 6 38 5 35 -11 -5 -26 -108 -33 -108 -6 0 9 17 35 38 56
l37 40 -37 -6 c-31 -5 -38 -3 -38 11 0 14 10 17 52 17 34 0 53 -5 56 -13z
m147 -39 c6 -28 13 -55 18 -59 13 -13 7 -24 -13 -24 -16 0 -20 7 -20 31 0 27
-3 30 -27 27 -24 -2 -28 -7 -26 -30 1 -21 -3 -28 -17 -28 -10 0 -22 5 -25 10
-3 6 -2 10 3 10 5 0 13 21 17 46 10 70 14 75 49 72 29 -3 32 -7 41 -55z
m-1185 5 l13 -43 13 30 c7 17 13 36 14 43 0 6 10 12 23 12 21 0 22 -4 22 -65
0 -56 -3 -65 -18 -65 -15 0 -17 6 -13 38 l6 37 -17 -37 c-21 -49 -38 -48 -57
5 l-16 42 4 -42 c3 -35 1 -43 -12 -43 -14 0 -17 11 -17 65 0 59 2 65 21 65 16
0 24 -10 34 -42z m642 -8 c-4 -48 -4 -50 21 -50 14 0 29 5 32 10 9 15 25 2 25
-21 0 -16 -7 -19 -55 -19 l-54 0 6 50 c4 33 2 55 -7 65 -11 13 -9 15 12 15 24
0 25 -2 20 -50z m-1229 -234 c16 38 13 12 -4 -33 -12 -33 -24 -28 -37 16 -17
55 -13 63 7 17 l17 -39 17 39z m34 2 c-3 -7 -5 -2 -5 12 0 14 2 19 5 13 2 -7
2 -19 0 -25z m89 -16 c1 -31 -2 -39 -8 -28 -12 21 -35 20 -41 -1 -3 -10 -5 4
-6 30 -1 47 0 48 27 45 25 -3 27 -7 28 -46z m72 41 c-13 -3 -18 -16 -20 -46
l-1 -42 -4 42 c-3 29 -9 43 -21 46 -9 3 1 5 23 5 22 0 32 -2 23 -5z m40 -39
c-2 -19 0 -36 4 -38 5 -3 3 -3 -4 -2 -8 1 -14 21 -16 45 -2 31 0 41 8 36 7 -4
10 -22 8 -41z m52 1 c0 -36 -3 -45 -17 -44 -11 0 -13 3 -5 6 7 2 12 22 12 44
0 21 2 39 5 39 3 0 5 -20 5 -45z m68 18 c5 -16 13 -37 17 -48 7 -16 6 -18 -6
-7 -16 14 -49 16 -49 2 0 -5 -4 -10 -9 -10 -5 0 -1 20 8 45 9 25 19 45 22 45
4 0 12 -12 17 -27z m175 -56 c15 -3 12 -5 -10 -6 -32 -1 -33 0 -33 37 0 53 14
63 18 14 2 -33 7 -42 25 -45z m75 76 c-34 -5 -38 -32 -5 -34 l22 -2 -22 -4
c-35 -7 -29 -33 7 -33 25 0 31 5 41 40 14 47 23 50 37 13 5 -16 13 -37 17 -48
7 -16 6 -18 -6 -7 -16 14 -49 16 -49 2 0 -5 -18 -10 -40 -10 l-40 0 0 45 c0
44 0 45 33 44 30 -2 30 -2 5 -6z m180 -20 c2 -13 -2 -23 -8 -23 -8 0 -8 -6 0
-20 6 -11 7 -20 1 -20 -5 0 -11 7 -15 15 -8 21 -34 19 -39 -2 -3 -10 -5 4 -6
30 l-1 48 33 -3 c24 -2 33 -8 35 -25z m32 -28 l-8 -40 -1 50 c-1 29 3 45 8 40
5 -6 6 -28 1 -50z m50 8 c0 -27 -4 -43 -9 -37 -8 8 -4 84 5 84 2 0 4 -21 4
-47z m37 -20 c-2 -16 -4 -5 -4 22 0 28 2 40 4 28 2 -13 2 -35 0 -50z m59 31
l19 -35 6 38 6 38 2 -47 c1 -54 -9 -61 -29 -20 l-14 27 -4 -27 c-6 -45 -22
-32 -22 17 0 54 10 57 36 9z m94 27 c-19 -5 -26 -14 -28 -39 -3 -27 0 -32 17
-32 12 0 21 6 21 14 0 8 5 18 10 21 6 4 10 -5 10 -20 0 -24 -3 -26 -32 -23
-28 3 -34 7 -36 31 -5 43 4 57 35 56 l28 -1 -25 -7z m118 2 c-24 -4 -28 -9
-28 -38 0 -29 4 -34 28 -38 25 -4 25 -4 -5 -6 -33 -1 -33 0 -33 44 0 44 0 45
33 44 30 -2 30 -2 5 -6z m80 0 c-31 -5 -39 -32 -10 -34 16 -1 16 -2 0 -6 -26
-6 -22 -31 5 -36 16 -3 14 -5 -10 -6 -31 -1 -31 0 -30 44 2 45 2 45 37 43 30
-1 31 -2 8 -5z m82 -26 c0 12 5 25 10 28 6 4 10 -12 10 -39 0 -54 -13 -59 -37
-13 l-17 32 -7 -35 c-6 -32 -6 -31 -7 15 l-1 50 24 -30 c23 -28 25 -28 25 -8z
m83 25 c-6 -4 -13 -25 -16 -47 l-4 -40 -1 42 c-2 30 -7 43 -19 46 -10 3 -2 5
17 6 19 0 30 -3 23 -7z m65 1 c-34 -5 -38 -32 -5 -34 l22 -2 -22 -4 c-32 -6
-29 -31 5 -36 25 -4 25 -4 -5 -6 -33 -1 -33 0 -33 44 0 44 0 45 33 44 30 -2
30 -2 5 -6z m98 -42 c1 -37 -1 -41 -11 -27 -16 21 -32 21 -38 -1 -3 -10 -5 4
-6 30 -1 47 0 48 27 45 25 -3 27 -7 28 -47z m-1158 -34 c24 -4 24 -4 -5 -6
-33 -1 -33 0 -31 42 l1 42 4 -37 c4 -31 8 -37 31 -41z m422 32 c0 -6 -4 -7
-10 -4 -5 3 -10 11 -10 16 0 6 5 7 10 4 6 -3 10 -11 10 -16z m-813 -31 c-3 -7
-5 -2 -5 12 0 14 2 19 5 13 2 -7 2 -19 0 -25z"/>
<path d="M2380 3010 c0 -16 7 -20 35 -20 28 0 35 4 35 20 0 16 -7 20 -35 20
-28 0 -35 -4 -35 -20z"/>
<path d="M2518 2903 c39 -2 105 -2 145 0 39 1 7 3 -73 3 -80 0 -112 -2 -72 -3z"/>
<path d="M2042 2868 c3 -21 8 -23 80 -26 50 -2 86 2 100 10 13 7 29 13 35 13
7 0 13 5 13 10 0 6 -48 11 -116 13 -115 3 -115 3 -112 -20z"/>
<path d="M2505 2865 c26 -22 40 -25 113 -25 81 0 82 0 82 25 l0 25 -112 0
-113 -1 30 -24z"/>
<path d="M2243 2848 c-2 -5 58 -8 133 -8 76 0 135 3 132 6 -9 8 -259 10 -265
2z"/>
<path d="M2040 2750 l0 -80 91 0 c112 0 119 5 119 94 l0 66 -105 0 -105 0 0
-80z m85 30 c0 -18 -6 -26 -22 -28 -20 -3 -23 1 -23 28 0 27 3 31 23 28 16 -2
22 -10 22 -28z m85 6 c0 -14 -4 -27 -9 -30 -18 -11 -41 6 -41 30 0 19 5 24 25
24 20 0 25 -5 25 -24z m-80 -71 c0 -20 -5 -25 -25 -25 -20 0 -25 5 -25 25 0
20 5 25 25 25 20 0 25 -5 25 -25z m80 0 c0 -20 -5 -25 -25 -25 -20 0 -25 5
-25 25 0 20 5 25 25 25 20 0 25 -5 25 -25z"/>
<path d="M2090 2775 c0 -9 6 -12 15 -9 8 4 15 10 15 15 0 5 -7 9 -15 9 -8 0
-15 -7 -15 -15z"/>
<path d="M2170 2780 c0 -5 7 -10 15 -10 8 0 15 5 15 10 0 6 -7 10 -15 10 -8 0
-15 -4 -15 -10z"/>
<path d="M2090 2715 c0 -8 7 -15 15 -15 8 0 15 7 15 15 0 8 -7 15 -15 15 -8 0
-15 -7 -15 -15z"/>
<path d="M2170 2715 c0 -8 7 -15 15 -15 8 0 15 7 15 15 0 8 -7 15 -15 15 -8 0
-15 -7 -15 -15z"/>
<path d="M2260 2760 l0 -70 35 0 c35 0 35 1 35 43 0 48 13 67 47 67 27 0 43
-27 43 -75 0 -35 1 -36 33 -33 30 3 32 5 35 47 7 91 6 91 -118 91 l-110 0 0
-70z m50 20 c0 -13 -7 -20 -20 -20 -19 0 -27 20 -13 33 13 14 33 6 33 -13z
m160 0 c0 -13 -7 -20 -20 -20 -19 0 -27 20 -13 33 13 14 33 6 33 -13z m-160
-66 c0 -8 -9 -14 -20 -14 -22 0 -28 26 -7 33 16 6 27 -1 27 -19z m158 3 c2
-12 -3 -17 -17 -17 -23 0 -24 1 -15 25 8 19 28 15 32 -8z"/>
<path d="M2285 2780 c-3 -5 -1 -10 4 -10 6 0 11 5 11 10 0 6 -2 10 -4 10 -3 0
-8 -4 -11 -10z"/>
<path d="M2445 2780 c-3 -5 -1 -10 4 -10 6 0 11 5 11 10 0 6 -2 10 -4 10 -3 0
-8 -4 -11 -10z"/>
<path d="M2500 2762 c0 -40 5 -73 12 -80 8 -8 45 -12 100 -12 l88 0 0 80 0 80
-100 0 -100 0 0 -68z m80 17 c0 -26 -3 -30 -22 -27 -17 2 -24 11 -26 31 -3 23
0 27 22 27 22 0 26 -4 26 -31z m88 7 c5 -25 -12 -39 -37 -31 -20 6 -28 34 -14
49 13 13 48 1 51 -18z m-88 -71 c0 -20 -5 -25 -25 -25 -20 0 -25 5 -25 25 0
20 5 25 25 25 20 0 25 -5 25 -25z m90 0 c0 -21 -5 -25 -30 -25 -25 0 -30 4
-30 25 0 21 5 25 30 25 25 0 30 -4 30 -25z"/>
<path d="M2540 2780 c0 -5 7 -10 15 -10 8 0 15 5 15 10 0 6 -7 10 -15 10 -8 0
-15 -4 -15 -10z"/>
<path d="M2630 2780 c0 -5 5 -10 10 -10 6 0 10 5 10 10 0 6 -4 10 -10 10 -5 0
-10 -4 -10 -10z"/>
<path d="M2540 2715 c0 -8 7 -15 15 -15 8 0 15 7 15 15 0 8 -7 15 -15 15 -8 0
-15 -7 -15 -15z"/>
<path d="M2630 2715 c0 -8 5 -15 10 -15 6 0 10 7 10 15 0 8 -4 15 -10 15 -5 0
-10 -7 -10 -15z"/>
<path d="M2347 2783 c-4 -3 -7 -26 -7 -50 0 -43 0 -43 35 -43 34 0 35 1 35 38
0 21 -5 43 -12 50 -13 13 -41 16 -51 5z"/>
<path d="M2143 2643 c65 -2 168 -2 230 0 62 1 9 3 -118 3 -126 0 -177 -2 -112
-3z"/>
<path d="M2538 2643 c29 -2 74 -2 100 0 26 2 2 3 -53 3 -55 0 -76 -1 -47 -3z"/>
<path d="M1394 2487 c-8 -22 -1 -30 21 -25 14 3 14 5 1 23 -14 19 -15 19 -22
2z"/>
<path d="M1706 2475 c-4 -10 1 -15 14 -15 11 0 20 7 20 15 0 8 -6 15 -14 15
-8 0 -16 -7 -20 -15z"/>
<path d="M1860 2444 c0 -44 1 -45 28 -42 24 3 27 7 30 46 3 41 2 42 -27 42
-30 0 -31 -1 -31 -46z"/>
<path d="M2670 2480 c0 -16 7 -20 30 -20 23 0 30 4 30 20 0 16 -7 20 -30 20
-23 0 -30 -4 -30 -20z"/>
<path d="M2997 2483 c-13 -12 -7 -23 13 -23 11 0 20 7 20 15 0 15 -21 21 -33
8z"/>
<path d="M3316 2475 c-4 -10 1 -15 14 -15 11 0 20 7 20 15 0 8 -6 15 -14 15
-8 0 -16 -7 -20 -15z"/>
<path d="M1680 2230 c0 -13 7 -20 20 -20 13 0 20 7 20 20 0 13 -7 20 -20 20
-13 0 -20 -7 -20 -20z"/>
<path d="M1930 2215 c0 -8 7 -15 15 -15 9 0 12 6 9 15 -4 8 -10 15 -15 15 -5
0 -9 -7 -9 -15z"/>
<path d="M2265 2227 c-8 -19 -2 -31 13 -26 5 2 6 13 2 24 -7 19 -8 19 -15 2z"/>
<path d="M2330 2230 c0 -16 5 -21 23 -18 12 2 22 10 22 18 0 8 -10 16 -22 18
-18 3 -23 -2 -23 -18z"/>
<path d="M3140 2230 c0 -15 5 -20 18 -18 9 2 17 10 17 18 0 8 -8 16 -17 18
-13 2 -18 -3 -18 -18z"/>
</g>
</svg>
